<?xml version="1.0" encoding="UTF-8" standalone="no"?>
<!-- Created with Inkscape (http://www.inkscape.org/) -->

<svg
   xmlns:dc="http://purl.org/dc/elements/1.1/"
   xmlns:cc="http://creativecommons.org/ns#"
   xmlns:rdf="http://www.w3.org/1999/02/22-rdf-syntax-ns#"
   xmlns:svg="http://www.w3.org/2000/svg"
   xmlns="http://www.w3.org/2000/svg"
   xmlns:sodipodi="http://sodipodi.sourceforge.net/DTD/sodipodi-0.dtd"
   xmlns:inkscape="http://www.inkscape.org/namespaces/inkscape"
   id="svg3336"
   version="1.1"
   inkscape:version="0.91 r13725"
   width="3016.25"
   height="1976.25"
   viewBox="0 0 3016.25 1976.25"
   sodipodi:docname="baker hughes logo.svg">
  <metadata
     id="metadata3342">
    <rdf:RDF>
      <cc:Work
         rdf:about="">
        <dc:format>image/svg+xml</dc:format>
        <dc:type
           rdf:resource="http://purl.org/dc/dcmitype/StillImage" />
        <dc:title></dc:title>
      </cc:Work>
    </rdf:RDF>
  </metadata>
  <defs
     id="defs3340" />
  <sodipodi:namedview
     pagecolor="#ffffff"
     bordercolor="#666666"
     borderopacity="1"
     objecttolerance="10"
     gridtolerance="10"
     guidetolerance="10"
     inkscape:pageopacity="0"
     inkscape:pageshadow="2"
     inkscape:window-width="1920"
     inkscape:window-height="1178"
     id="namedview3338"
     showgrid="false"
     inkscape:zoom="0.51056293"
     inkscape:cx="1618.8358"
     inkscape:cy="988.125"
     inkscape:window-x="-8"
     inkscape:window-y="-8"
     inkscape:window-maximized="1"
     inkscape:current-layer="svg3336" />
  <path
     id="path3362"
     style="fill:#000000"
     d="m 1648.75,902.32812 0,171.97458 0,171.9746 60.3125,-0.3242 60.3125,-0.3242 0.3691,-54.375 0.3692,-54.375 16.207,31.875 c 8.9137,17.5312 21.3966,42.1406 27.7402,54.6875 l 11.5333,22.8125 70.4746,0 c 66.5068,0 70.4405,-0.1231 69.8906,-2.1875 -0.3205,-1.2031 -7.0436,-12.0313 -14.9395,-24.0625 -36.8165,-56.099 -68.6353,-105.2952 -68.2832,-105.5762 0.2132,-0.1702 4.5401,-2.469 9.6133,-5.1074 20.8981,-10.8685 37.3653,-32.2109 44.1055,-57.1621 3.587,-13.279 4.4486,-39.5685 1.7637,-53.79492 -2.3849,-12.63505 -7.0757,-26.45876 -11.7461,-34.60937 -17.2685,-30.1372 -48.608,-51.22408 -86.7774,-58.38672 -8.5186,-1.59855 -26.0829,-2.03121 -100.6328,-2.48633 l -90.3125,-0.55274 z m 121.25,92.40821 14.6875,0.46289 c 18.3314,0.57208 23.7066,2.99533 30,13.52348 3.5229,5.8934 4.0625,7.9286 4.0625,15.3281 0,14.0429 -5.0239,22.37 -16.875,27.9726 l 0,-0 c -5.2964,2.5039 -8.2049,2.9568 -19.0625,2.9668 L 1770,1055 l 0,-30.1309 0,-30.13277 z m -383.75,79.64867 0,-171.88143 115.625,0 115.625,0 0,47.5 0,47.5 -54.3035,0 -54.3036,0 -0.3839,15.62733 -0.384,15.6272 48.4375,0 48.4375,0 0,45 0,45 -48.125,0 -48.125,0 0,16.2373 0,16.2373 56.5625,0.3252 56.5625,0.3252 0,46.875 0,46.875 -117.8125,0.3189 -117.8125,0.3189 0,-171.8814 z m -358.75,-0.01 0,-171.89924 59.6875,0.32462 59.6875,0.32462 0.625,69.375 c 0.604,67.0389 0.6984,69.2277 2.8048,65 1.1989,-2.4062 18.3683,-33.625 38.1541,-69.375 l 35.9743,-65 67.8332,-0.32329 67.8331,-0.32329 -1.5071,2.81599 c -0.8289,1.5488 -17.5334,27.85053 -37.121,58.44829 -54.3228,84.8569 -65.9192,102.9951 -66.933,104.6915 -0.806,1.3487 49.3243,77.3794 103.795,157.4212 7.1041,10.4392 12.9166,19.3032 12.9166,19.6977 0,0.3944 -32.4356,0.572 -72.0792,0.3945 l -72.0793,-0.3226 -24.4832,-41.2684 c -13.4658,-22.6976 -31.2333,-52.6821 -39.4833,-66.6322 l -15,-25.3639 -0.625,66.6322 -0.625,66.6323 -59.6875,0.3246 -59.6875,0.3246 0,-171.8992 z m -139.0918,-171.89648 -68.89258,0.32421 -68.89062,0.32227 -6.04688,17.5 c -25.58842,74.05443 -39.32848,113.7545 -44.56054,128.75 -5.8343,16.7216 -13.1464,37.8425 -39.59961,114.375 -6.53487,18.9063 -15.49063,44.6733 -19.90039,57.2598 -4.40976,12.5865 -8.01758,23.4146 -8.01758,24.0625 0,0.7223 25.38515,1.1777 65.625,1.1777 36.09375,0 65.625,-0.3123 65.625,-0.6934 0,-0.381 1.96875,-9.6311 4.375,-20.5566 2.40625,-10.9254 4.375,-20.1831 4.375,-20.5723 0,-0.3902 21.48028,-0.5609 47.73438,-0.3808 l 47.73437,0.3281 1.71094,6.875 c 0.94008,3.7813 3.43462,13.2031 5.54492,20.9375 l 3.83789,14.0625 65.46875,0 c 53.60812,0 65.46875,-0.3003 65.46875,-1.6602 0,-1.2243 -98.84507,-279.46304 -118.97852,-334.91207 l -2.61328,-7.19921 z m -66.83203,118.70308 c 0.0405,-0.019 0.073,0 0.0957,0.068 0.3628,1.0312 3.86755,15.375 7.78906,31.875 3.92151,16.5 9.21609,38.4375 11.76562,48.75 2.54953,10.3125 4.40845,19.1719 4.13086,19.6875 -0.60469,1.1233 -49.10742,1.2795 -49.10742,0.1582 0,-0.4287 3.15402,-12.9444 7.00977,-27.8125 3.85574,-14.8681 9.42719,-37.7207 12.38085,-50.7832 2.76909,-12.2461 5.32769,-21.6638 5.93555,-21.9434 z M 346.25,902.5 l 0,171.9512 0,171.9511 97.8125,-0.5097 c 84.83341,-0.4412 99.22236,-0.7854 108.4375,-2.5938 22.77337,-4.4691 41.7408,-12.3565 55.27344,-22.9883 20.89591,-16.4168 35.00675,-48.5787 32.95117,-75.1015 -2.48782,-32.1001 -18.65542,-56.0327 -47.35156,-70.0957 l -13.5,-6.6172 6,-3.1445 c 25.4787,-13.3511 37.92158,-35.4527 38.19922,-67.8516 0.13936,-16.26353 -2.4904,-28.08307 -9.45508,-42.5 C 607.65261,940.58331 592.50609,925.16438 578.75,918.48633 549.36365,904.22038 533.09639,902.52632 425.3125,902.51172 L 346.25,902.5 Z m 113.75,80.92383 16.68945,0.5664 c 14.49153,0.49149 17.48781,0.96471 22.74805,3.59961 8.3717,4.19345 10.95943,8.19125 11.57617,17.87696 0.8942,14.0431 -5.82156,23.7129 -19.28125,27.7637 -3.43245,1.033 -11.26094,1.7695 -18.80664,1.7695 L 460,1035 l 0,-25.7891 0,-25.78707 z m 0,122.52737 19.6875,0.6035 c 21.12456,0.648 27.20216,2.0269 34.92578,7.918 8.02469,6.1208 11.96958,18.7562 9.13867,29.2695 -2.11848,7.8674 -9.93505,15.3984 -18.67578,17.9941 -4.94485,1.4685 -11.96183,2.0137 -25.92773,2.0137 l -19.14844,0 0,-28.8984 0,-28.9004 z m 1691.25,355.2988 0,-171.25 115.625,0 115.625,0 0,46.875 0,46.875 -53.125,0 -53.125,0 0,16.25 0,16.25 46.875,0 46.875,0 0,45 0,45 -46.875,0 -46.875,0 0,16.25 0,16.25 55.625,0 55.625,0 0,46.875 0,46.875 -118.125,0 -118.125,0 0,-171.25 z m -343.75,0 0,-171.25 60,0 60,0 0,58.125 0,58.125 38.125,0 38.125,0 0,-58.125 0,-58.125 60,0 60,0 0,171.25 0,171.25 -60,0 -60,0 0,-57.5 0,-57.5 -38.125,0 -38.125,0 0,57.5 0,57.5 -60,0 -60,0 0,-171.25 z m -1078.75,0 0,-171.25 60,0 60,0 0,58.125 0,58.125 38.125,0 38.125,0 0,-58.125 0,-58.125 60,0 60,0 0,171.25 0,171.25 -60,0 -60,0 0,-57.5 0,-57.5 -38.125,0 -38.125,0 0,57.5 0,57.5 -60,0 -60,0 0,-171.25 z m 478.75,175.5224 c -1.7187,-0.2917 -7.3437,-1.1265 -12.5,-1.8553 -5.1562,-0.7287 -15.6305,-2.9651 -23.2762,-4.9697 -48.8267,-12.802 -78.3087,-38.5099 -91.6845,-79.9474 -6.2034,-19.2179 -6.2893,-21.1921 -6.2893,-144.5388 l 0,-115.4612 61.875,0 61.875,0 0.015,104.0625 c 0.016,108.5411 0.092,110.2743 5.3345,120.4065 2.8912,5.588 11.239,12.6606 16.7497,14.1909 6.2308,1.7301 20.9386,1.6975 27.2718,-0.061 7.0729,-1.9635 14.8069,-10.116 17.6538,-18.6087 2.1505,-6.4156 2.3263,-13.8468 2.6847,-113.4279 l 0.3835,-106.5625 61.2035,0 61.2036,0 0,112.9613 c 0,95.0198 -0.2991,114.6766 -1.8833,123.761 -10.0358,57.5495 -47.5609,94.3658 -109.3223,107.2576 -9.3292,1.9472 -18.0311,2.5786 -40.0444,2.9052 -15.4687,0.2297 -29.5312,0.1788 -31.25,-0.1125 z m 373.125,2.371 c -51.9844,-4.5365 -93.9017,-23.0387 -124.2046,-54.8232 -17.5779,-18.4373 -29.3128,-37.7018 -36.8964,-60.5702 -6.9989,-21.1053 -8.401,-29.6429 -9.1351,-55.625 -0.5744,-20.3244 -0.3016,-25.9135 1.891,-38.75 6.4597,-37.8194 20.8467,-66.3541 46.3915,-92.0123 32.1824,-32.3251 72.5927,-49.5963 125.3639,-53.5801 26.7327,-2.0181 58.6025,1.1038 82.773,8.1081 41.794,12.1114 83.3632,42.2472 101.2621,73.4102 l 3.4035,5.9258 -3.5494,1.3594 c -18.5984,7.1227 -110.2682,41.0288 -111.8199,41.359 -1.2407,0.264 -3.9986,-2.0685 -7.1471,-6.0448 -10.4684,-13.2205 -23.7554,-19.1503 -42.911,-19.1503 -23.4252,0 -43.5441,10.9756 -55.8575,30.4726 -17.4314,27.6005 -17.9602,66.2892 -1.2855,94.029 8.9425,14.8766 25.6516,25.5023 44.4004,28.2349 22.6287,3.2981 47.2359,-6.8895 55.552,-22.9993 1.3167,-2.5507 2.3941,-4.9413 2.3941,-5.3125 0,-0.3711 -12.0937,-0.6747 -26.875,-0.6747 l -26.875,0 0,-41.25 0,-41.25 95.8119,0 95.8119,0 -0.7512,25.3125 c -1.8296,61.6615 -13.957,95.3427 -45.7791,127.1421 -40.5004,40.4714 -101.8304,61.9369 -161.9685,56.6888 z m 940.625,1.2687 c -35.7916,-2.0496 -73.001,-10.8836 -107.2807,-25.4698 -11.1128,-4.7285 -12.8255,-5.844 -12.3287,-8.0294 0.6775,-2.979 36.7548,-94.4749 37.5757,-95.2958 0.3065,-0.3065 5.2488,3.009 10.983,7.3678 23.3652,17.7608 49.9836,27.3789 75.1949,27.17 20.3967,-0.1689 30.8558,-7.0549 30.8558,-20.3144 0,-7.3393 -4.1607,-12.467 -12.2244,-15.0656 -3.2454,-1.0458 -16.5881,-3.9108 -29.6506,-6.3665 -28.861,-5.426 -36.1516,-7.3479 -47.6524,-12.5618 -27.4135,-12.4281 -46.914,-35.5962 -52.2743,-62.1064 -4.1237,-20.3932 -1.4421,-46.8171 6.6906,-65.9286 11.1953,-26.3087 33.625,-49.2796 61.9861,-63.4822 26.9607,-13.5013 54.1952,-18.7159 91.1098,-17.445 22.7238,0.7825 36.3677,3.0235 54.8675,9.0123 11.7791,3.8132 43.3977,18.9997 43.3977,20.8441 0,0.6778 -7.0013,19.6042 -15.5584,42.0583 -8.5571,22.4543 -16.0149,42.0703 -16.5726,43.5913 -0.99,2.6991 -1.2835,2.6027 -12.2541,-4.0245 -22.3257,-13.4865 -44.8824,-20.2319 -63.7254,-19.0563 -15.2303,0.9502 -23.7531,6.0504 -25.2205,15.0925 -2.0739,12.78 2.2074,15.3454 39.0426,23.3948 32.97,7.2047 41.1054,9.6541 54.8271,16.5072 24.7742,12.3732 40.1193,30.1582 47.7319,55.3209 3.0486,10.0771 3.4124,13.2699 3.49,30.625 0.096,21.4195 -1.9767,32.2611 -9.2207,48.2374 -13.9109,30.6798 -43.9572,55.564 -81.2899,67.3237 -19.1635,6.0365 -51.1066,9.8261 -72.5,8.601 z" />
  <path
     id="path3346"
     style="fill:#3b96cd;fill-opacity:1"
     d="m 1833.0206,441.5625 c 1.0807,-30.70305 3.043,-71.11247 4.0064,-82.5 l 0.7667,-9.0625 165.0615,0 c 90.7838,0 164.8082,0.25324 164.4987,0.56276 -0.3095,0.30953 -8.4189,2.29894 -18.0208,4.42094 -68.9055,15.22788 -152.8019,40.78194 -215.5831,65.66461 -32.1626,12.7473 -69.9238,29.25754 -89.9826,39.34296 -5.479,2.75481 -10.3242,5.00873 -10.7668,5.00873 -0.4427,0 -0.4337,-10.54688 0.02,-23.4375 z m 475.9557,378.71081 C 2283.1459,743.93861 2265.0735,675.49899 2250.8105,600 c -5.5741,-29.50561 -6.7179,-36.42931 -12.6992,-76.875 -5.048,-34.13418 -13.2154,-119.68749 -11.5822,-121.32085 0.3962,-0.39604 17.0935,-4.01944 37.1053,-8.05201 128.7015,-25.93453 267.133,-41.29189 397.3046,-44.0763 l 14.0641,-0.30084 0,245.3125 0,245.3125 -179.6875,-0.0391 -179.6875,-0.0391 -6.6487,-19.64831 z m -448.1659,0.66263 c -18.193,-97.28038 -25.782,-165.91178 -27.8888,-252.21037 l -0.8092,-33.14942 10.5062,-4.88789 c 5.7785,-2.68833 15.5957,-7.26275 21.8158,-10.16535 13.7045,-6.39512 57.8895,-25.22172 73.2129,-31.19495 6.1065,-2.38037 16.3058,-6.36015 22.6652,-8.84395 29.2916,-11.44046 84.5488,-30.13499 125.2063,-42.35955 26.9816,-8.11265 77.4522,-21.87446 80.2232,-21.87446 0.9411,0 1.7024,5.37036 2.2591,15.9375 6.5901,125.08562 21.6943,238.27764 46.4949,348.4375 4.7699,21.18679 10.7196,45.64039 13.7621,56.5625 l 0.7835,2.8125 -182.3334,-10e-4 -182.3332,-10e-4 -3.5646,-19.06094 z m -403.1001,10.62656 c 7.342,-11.80221 26.0073,-37.67015 27.9765,-38.77215 0.8996,-0.50345 1.6173,-1.3869 1.595,-1.96324 -0.06,-1.55091 18.4165,-22.9338 35.6962,-41.31106 13.8204,-14.69806 51.9761,-49.9414 63.7296,-58.86504 2.6579,-2.01801 6.5438,-5.26752 8.6352,-7.22115 2.0913,-1.95362 14.5416,-11.6189 27.6673,-21.4784 28.4984,-21.40687 57.2427,-40.90279 88.9308,-60.31784 22.9312,-14.04981 59.2202,-34.63913 59.8834,-33.9761 0.262,0.26212 -0.095,15.09952 -0.7944,32.97202 -2.3713,60.62773 2.4552,155.99873 11.2757,222.80796 l 2.1867,16.5625 -166.0155,0 -166.0155,0 5.249,-8.4375 z m -56.4603,5.89787 c 0,-3.79795 5.9318,-43.12939 9.5141,-63.08537 8.2887,-46.17161 22.1359,-103.70114 34.2995,-142.5 24.3609,-77.70468 46.456,-132.58881 80.0126,-198.75 17.9229,-35.3375 21.6994,-42.18273 22.7128,-41.16931 0.391,0.39103 0.6266,-0.0296 0.5235,-0.93485 -0.1025,-0.90522 4.875,-10.49058 11.0625,-21.30081 l 11.25,-19.65498 110.4025,-0.0325 110.4024,-0.0325 -0.7488,6.5625 c -4.176,36.60236 -11.1157,101.93556 -12.5669,118.30949 -0.9991,11.27333 -1.9678,20.62858 -2.1528,20.78942 -0.185,0.16084 -8.2114,4.76368 -17.8364,10.22853 -35.6929,20.26558 -98.1966,61.30305 -111.47,73.18678 -1.5678,1.40362 -3.3705,2.03316 -4.2556,1.48611 -0.9075,-0.56089 -1.2158,-0.43149 -0.7535,0.31636 0.4301,0.69601 -4.9674,5.66808 -11.9944,11.04908 -7.0271,5.38099 -19.3886,15.33617 -27.4703,22.1226 -8.6188,7.23774 -15.2877,11.97184 -16.1306,11.45093 -0.8924,-0.55152 -1.096,-0.33653 -0.5374,0.56731 0.5292,0.85619 -0.7772,2.86561 -3.173,4.88064 -2.2398,1.88389 -5.0458,4.46945 -6.2356,5.74569 -1.1897,1.27625 -2.7826,1.93756 -3.5398,1.46958 -0.7572,-0.46796 -1.2222,-0.35625 -1.0333,0.24828 0.4661,1.49166 -58.0809,59.57934 -59.6565,59.18846 -0.6875,-0.17055 -0.841,0.0989 -0.3413,0.59869 0.4999,0.49983 -3.4743,5.74983 -8.8315,11.66666 -5.3572,5.91684 -12.7371,14.41414 -16.3997,18.88289 -3.6626,4.46875 -7.0041,8.40625 -7.4255,8.75 -0.4214,0.34375 -3.1831,3.87434 -6.1372,7.84574 -3.1175,4.19127 -5.9489,6.86354 -6.7485,6.36936 -0.8209,-0.50732 -1.0238,-0.27891 -0.502,0.56525 0.4948,0.80079 -3.4198,6.99796 -9.005,14.25564 -11.487,14.9266 -35.0522,49.97439 -45.516,67.69476 -2.6194,4.43594 -4.136,5.76925 -6.5625,5.76925 -2.3389,0 -3.1558,-0.65742 -3.1558,-2.53962 z M 1146.25,595 l 0,-245 194.375,0 c 106.9063,0 194.375,0.33504 194.375,0.74454 0,0.4095 -1.0302,2.23762 -2.2895,4.0625 -5.2423,7.59696 -29.2421,50.24512 -38.5829,68.56239 -2.5226,4.94693 -5.1327,8.6569 -5.8002,8.24436 -0.6675,-0.41253 -0.8529,-0.16638 -0.412,0.54702 0.4408,0.71339 -3.9461,11.1843 -9.7489,23.26869 -12.1497,25.30204 -28.8505,63.74843 -38.514,88.66191 -3.6729,9.46904 -7.1562,16.78154 -7.7406,16.25 -0.5845,-0.53152 -0.6651,-0.27466 -0.1792,0.57082 0.486,0.84547 -0.058,4.22047 -1.2091,7.5 -10.5482,30.05648 -22.537,67.31717 -28.463,88.46277 -13.3626,47.68055 -26.35,108.9411 -33.2581,156.875 -1.4366,9.96875 -2.9054,19.95312 -3.2639,22.1875 l -0.6519,4.0625 -109.3183,0 -109.3184,0 0,-245 z" />
</svg>
