<svg xmlns="http://www.w3.org/2000/svg" xmlns:xlink="http://www.w3.org/1999/xlink" version="1.1" x="0px" y="0px" viewBox="0 0 100 100" style="enable-background:new 0 0 100 100;" xml:space="preserve"><style type="text/css">
	.st0{fill:#010101;}
</style><path class="st0" d="M87.3,47C87.3,47,87.3,47,87.3,47l-60.9,0.3l24.5-24.5c1.6-1.6,1.6-4.1,0-5.7c-1.6-1.6-4.1-1.6-5.7,0L11,51.3  l2.8,2.8c0,0,0,0,0,0l30.8,30.8c0.8,0.8,1.8,1.2,2.8,1.2s2-0.4,2.8-1.2c1.6-1.6,1.6-4.1,0-5.7l-24-24l61-0.3c2.2,0,4-1.8,4-4  C91.3,48.7,89.5,47,87.3,47z"></path></svg>