<svg xmlns:dc="http://purl.org/dc/elements/1.1/" xmlns:cc="http://creativecommons.org/ns#" xmlns:rdf="http://www.w3.org/1999/02/22-rdf-syntax-ns#" xmlns:svg="http://www.w3.org/2000/svg" xmlns="http://www.w3.org/2000/svg" xmlns:sodipodi="http://sodipodi.sourceforge.net/DTD/sodipodi-0.dtd" xmlns:inkscape="http://www.inkscape.org/namespaces/inkscape" version="1.1" x="0px" y="0px" viewBox="0 0 100 100"><g transform="translate(0,-952.36218)"><path style="text-indent:0;text-transform:none;direction:ltr;block-progression:tb;baseline-shift:baseline;color:#000000;enable-background:accumulate;" d="m 50.005941,970.48044 c -17.529764,0 -31.88768,14.35791 -31.88768,31.88776 0,17.5297 14.357916,31.8736 31.88768,31.8736 17.529764,0 31.87367,-14.3439 31.87367,-31.8736 0,-17.52985 -14.343906,-31.88776 -31.87367,-31.88776 z m 0,13.16978 c 10.414505,0 18.70389,8.30339 18.70389,18.71798 0,10.4144 -8.289385,18.7038 -18.70389,18.7038 -10.414505,0 -18.7179,-8.2894 -18.7179,-18.7038 0,-10.41459 8.303395,-18.71798 18.7179,-18.71798 z" fill="#000000" fill-opacity="1" stroke="none" marker="none" visibility="visible" display="inline" overflow="visible"></path><g style="" fill="#000000" stroke="none"><path d="m 34.185529,962.47578 c -4.354103,1.72635 -6.288263,7.08958 -4.333909,12.01875 l 3.992203,10.06891 c 2.081709,-1.89074 4.528581,-3.4472 7.297191,-4.54492 2.768612,-1.09771 5.617245,-1.64087 8.429003,-1.69032 l -3.992203,-10.06892 c -1.954355,-4.92917 -7.038184,-7.50985 -11.392285,-5.7835 z m 16.244455,63.92032 3.992213,10.0689 c 1.95437,4.9293 7.038173,7.5099 11.392274,5.7836 4.354102,-1.7264 6.28829,-7.0895 4.333919,-12.0188 l -3.992213,-10.0689 c -2.081694,1.8908 -4.528575,3.4472 -7.297188,4.5449 -2.768607,1.0978 -5.617234,1.6409 -8.429005,1.6903 z" style="" fill="#000000" fill-opacity="1" stroke="none"></path><path style="" d="m 66.588589,962.79147 c 4.319642,1.81084 6.148944,7.21074 4.098925,12.1009 l -4.187617,9.98922 c -2.044476,-1.93094 -4.46056,-3.53478 -7.207258,-4.68623 -2.746699,-1.15145 -5.584209,-1.75 -8.39447,-1.85422 l 4.187618,-9.98923 c 2.050018,-4.89016 7.183162,-7.3713 11.502802,-5.56044 z m -17.486728,63.59173 -4.187628,9.9892 c -2.050036,4.8903 -7.183152,7.3713 -11.502792,5.5605 -4.319641,-1.8109 -6.148972,-7.2107 -4.098936,-12.1009 l 4.187628,-9.9893 c 2.044461,1.931 4.460553,3.5348 7.207255,4.6862 2.746693,1.1516 5.584198,1.7501 8.394473,1.8543 z" fill="#000000" fill-opacity="1" stroke="none"></path></g><g transform="matrix(0,1,-1,0,1052.3622,952.36217)" style="" fill="#000000" stroke="none"><path style="" d="m 34.185529,962.47578 c -4.354103,1.72635 -6.288263,7.08958 -4.333909,12.01875 l 3.992203,10.06891 c 2.081709,-1.89074 4.528581,-3.4472 7.297191,-4.54492 2.768612,-1.09771 5.617245,-1.64087 8.429003,-1.69032 l -3.992203,-10.06892 c -1.954355,-4.92917 -7.038184,-7.50985 -11.392285,-5.7835 z m 16.244455,63.92032 3.992213,10.0689 c 1.95437,4.9293 7.038173,7.5099 11.392274,5.7836 4.354102,-1.7264 6.28829,-7.0895 4.333919,-12.0188 l -3.992213,-10.0689 c -2.081694,1.8908 -4.528575,3.4472 -7.297188,4.5449 -2.768607,1.0978 -5.617234,1.6409 -8.429005,1.6903 z" fill="#000000" fill-opacity="1" stroke="none"></path><path d="m 66.588589,962.79147 c 4.319642,1.81084 6.148944,7.21074 4.098925,12.1009 l -4.187617,9.98922 c -2.044476,-1.93094 -4.46056,-3.53478 -7.207258,-4.68623 -2.746699,-1.15145 -5.584209,-1.75 -8.39447,-1.85422 l 4.187618,-9.98923 c 2.050018,-4.89016 7.183162,-7.3713 11.502802,-5.56044 z m -17.486728,63.59173 -4.187628,9.9892 c -2.050036,4.8903 -7.183152,7.3713 -11.502792,5.5605 -4.319641,-1.8109 -6.148972,-7.2107 -4.098936,-12.1009 l 4.187628,-9.9893 c 2.044461,1.931 4.460553,3.5348 7.207255,4.6862 2.746693,1.1516 5.584198,1.7501 8.394473,1.8543 z" style="" fill="#000000" fill-opacity="1" stroke="none"></path></g></g></svg>