<svg xmlns="http://www.w3.org/2000/svg" xmlns:xlink="http://www.w3.org/1999/xlink" version="1.1" x="0px" y="0px" viewBox="0 0 90 90" style="enable-background:new 0 0 90 90;" xml:space="preserve"><path d="M44.5,85.2c-21.9,0-39.7-17.8-39.7-39.7c0-21.9,17.8-39.7,39.7-39.7s39.7,17.8,39.7,39.7C84.2,67.4,66.4,85.2,44.5,85.2z   M44.5,11.2c-18.9,0-34.3,15.4-34.3,34.3c0,18.9,15.4,34.3,34.3,34.3s34.3-15.4,34.3-34.3C78.8,26.6,63.4,11.2,44.5,11.2z M44.5,60  c1,0,1.9,0.4,2.6,1.1c0.7,0.7,1.1,1.6,1.1,2.6c0,1-0.4,1.9-1.1,2.6c-0.8,0.7-1.6,1.1-2.5,1.1s-1.8-0.4-2.5-1.1  c-0.8-0.7-1.1-1.6-1.1-2.6c0-1,0.4-1.9,1.1-2.6C42.6,60.3,43.5,60,44.5,60z M47.1,54.8h-5.1V23.7h5.1V54.8z"></path></svg>