<svg xmlns="http://www.w3.org/2000/svg" xmlns:xlink="http://www.w3.org/1999/xlink" version="1.1" x="0px" y="0px" viewBox="0 0 48 48" enable-background="new 0 0 48 48" xml:space="preserve"><g><path fill="#000000" d="M6.1,15c0.6-1.8,2.4-3.1,4.4-3.1h27.6c0.4,0,0.8-0.3,0.8-0.7V9.4c0-0.9-0.7-1.6-1.7-1.6H16   c-0.9,0-1.7-0.7-1.7-1.6V5.6c0-0.9-0.7-1.6-1.7-1.6H2.2C1.2,4,0.5,4.7,0.5,5.6v2.2v1.4V32c0,0.2,0.3,0.3,0.4,0.1L6.1,15z"></path><path fill="#000000" d="M38,44H2.4c-0.9,0-1.6-0.9-1.3-1.7l8.1-26.4c0.2-0.6,0.7-1,1.3-1h35.6c0.9,0,1.6,0.9,1.3,1.7L39.3,43   C39.1,43.6,38.6,44,38,44z"></path></g></svg>