<svg xmlns="http://www.w3.org/2000/svg" xmlns:xlink="http://www.w3.org/1999/xlink" version="1.1" x="0px" y="0px" viewBox="0 0 100 100" style="enable-background:new 0 0 100 100;" xml:space="preserve"><style type="text/css">
	.st0{fill:#010101;}
</style><path class="st0" d="M50.5,17.1c-1.6,1.6-1.6,4.1,0,5.7L75,47.2L14.1,47c0,0,0,0,0,0c-2.2,0-4,1.8-4,4c0,2.2,1.8,4,4,4l61,0.3  l-24,24c-1.6,1.6-1.6,4.1,0,5.7c0.8,0.8,1.8,1.2,2.8,1.2s2-0.4,2.8-1.2l33.6-33.6L56.2,17.1C54.6,15.5,52.1,15.5,50.5,17.1z"></path></svg>