<svg xmlns="http://www.w3.org/2000/svg" xmlns:xlink="http://www.w3.org/1999/xlink" version="1.1" preserveAspectRatio="none" x="0px" y="0px" viewBox="0 0 100 100"><defs><g id="a"><path fill="#000000" stroke="none" d=" M 50 70 Q 45.85 70 42.9 72.9 40 75.85 40 80 40 84.15 42.9 87.05 45.85 90 50 90 54.15 90 57.05 87.05 60 84.15 60 80 60 75.85 57.05 72.9 54.15 70 50 70 M 50 40 Q 45.85 40 42.9 42.9 40 45.85 40 50 40 54.15 42.9 57.05 45.85 60 50 60 54.15 60 57.05 57.05 60 54.15 60 50 60 45.85 57.05 42.9 54.15 40 50 40 M 60 20 Q 60 15.85 57.05 12.9 54.15 10 50 10 45.85 10 42.9 12.9 40 15.85 40 20 40 24.15 42.9 27.05 45.85 30 50 30 54.15 30 57.05 27.05 60 24.15 60 20 Z"></path></g></defs><g transform="matrix( 1, 0, 0, 1, 0,0) "><use xlink:href="#a"></use></g></svg>