<svg xmlns="http://www.w3.org/2000/svg" xmlns:xlink="http://www.w3.org/1999/xlink" viewBox="0 0 100 100" version="1.1" x="0px" y="0px"><title>Plus 5</title><desc>Created with Sketch.</desc><g stroke="none" stroke-width="1" fill="none" fill-rule="evenodd"><g fill="#000000"><path d="M55,45 L55,15.0043583 C55,12.2442206 52.7614237,10 50,10 C47.2441952,10 45,12.2405275 45,15.0043583 L45,45 L15.0043583,45 C12.2442206,45 10,47.2385763 10,50 C10,52.7558048 12.2405275,55 15.0043583,55 L45,55 L45,84.9956417 C45,87.7557794 47.2385763,90 50,90 C52.7558048,90 55,87.7594725 55,84.9956417 L55,55 L84.9956417,55 C87.7557794,55 90,52.7614237 90,50 C90,47.2441952 87.7594725,45 84.9956417,45 L55,45 Z"></path></g></g></svg>