<svg xmlns="http://www.w3.org/2000/svg" xmlns:xlink="http://www.w3.org/1999/xlink" version="1.1" x="0px" y="0px" viewBox="0 0 100 100" style="enable-background:new 0 0 100 100;" xml:space="preserve"><path d="M81.2,5h-4.5H64.8h-5.9C51.2,5,45,11.2,45,18.8v26.1H25l25,25l25-25H55V18.8c0-2.1,1.8-3.8,3.8-3.8h5.9h11.9h4.5  c2.1,0,3.8,1.8,3.8,3.8v62.3c0,2.1-1.8,3.8-3.8,3.8H18.8c-2.1,0-3.8-1.8-3.8-3.8V15H5v66.2C5,88.8,11.2,95,18.8,95h62.3  C88.8,95,95,88.8,95,81.2V18.8C95,11.2,88.8,5,81.2,5z"></path></svg>