<?xml version="1.0" encoding="UTF-8" standalone="no"?>
<svg
   xmlns:dc="http://purl.org/dc/elements/1.1/"
   xmlns:cc="http://creativecommons.org/ns#"
   xmlns:rdf="http://www.w3.org/1999/02/22-rdf-syntax-ns#"
   xmlns:svg="http://www.w3.org/2000/svg"
   xmlns="http://www.w3.org/2000/svg"
   viewBox="0 0 26.000113 26.000113"
   height="26.000113"
   width="26.000113"
   version="1.1"
   id="svg5967">
  <metadata
     id="metadata5973">
    <rdf:RDF>
      <cc:Work
         rdf:about="">
        <dc:format>image/svg+xml</dc:format>
        <dc:type
           rdf:resource="http://purl.org/dc/dcmitype/StillImage" />
        <dc:title></dc:title>
      </cc:Work>
    </rdf:RDF>
  </metadata>
  <defs
     id="defs5971" />
  <path
     id="path5977"
     d="M 8.7598037,18.883104 C 8.6012462,18.796776 7.2126599,17.408963 7.1313191,17.255526 7.0913368,17.180106 7.0586244,17.010062 7.0586244,16.87765 l 0,-0.240749 1.8138375,-1.818422 1.8138371,-1.818423 -1.8138371,-1.818422 -1.8138375,-1.8184215 0,-0.2407494 c 0,-0.1324122 0.032712,-0.3024564 0.072695,-0.3778766 C 7.2181966,8.5807066 8.610461,7.195351 8.7691607,7.114873 8.8301665,7.0839365 8.9893918,7.0586244 9.1229943,7.0586244 l 0.2429142,0 1.8167475,1.8141635 1.816746,1.8141641 1.818749,-1.8141641 1.81875,-1.8141635 0.240749,0 c 0.132412,0 0.302456,0.032712 0.377876,0.072695 0.16388,0.086877 1.549236,1.4791419 1.629714,1.6378416 0.03094,0.061006 0.05625,0.2202311 0.05625,0.3538336 l 0,0.2429142 -1.814164,1.8167475 -1.814164,1.816746 1.814164,1.818749 1.814164,1.81875 0,0.241565 c 0,0.132862 -0.02531,0.29148 -0.05625,0.352486 -0.08048,0.1587 -1.465834,1.550964 -1.629714,1.637842 -0.07542,0.03998 -0.246071,0.07269 -0.379224,0.07269 l -0.242097,0 -1.817075,-1.81449 -1.817074,-1.814491 -1.817073,1.814491 -1.8170745,1.81449 -0.2522707,-0.0015 c -0.1387492,-8.5e-4 -0.2979745,-0.02643 -0.3538341,-0.05684 z"
     style="fill:#000000" />
</svg>
