<svg xmlns="http://www.w3.org/2000/svg" xmlns:xlink="http://www.w3.org/1999/xlink" version="1.1" x="0px" y="0px" viewBox="0 0 100 100" enable-background="new 0 0 100 100" xml:space="preserve"><g><path d="M42.24,66.24L24.48,84H32c3.31,0,6,2.69,6,6s-2.69,6-6,6H10c-0.58,0-1.15-0.08-1.71-0.25c-0.17-0.05-0.34-0.11-0.5-0.17   c-0.02-0.01-0.04-0.02-0.06-0.02c-0.18-0.08-0.35-0.16-0.52-0.25c-0.14-0.07-0.28-0.16-0.42-0.25c-0.37-0.23-0.71-0.5-1.03-0.82   c-0.6-0.6-1.05-1.29-1.34-2.03c-0.07-0.16-0.12-0.33-0.17-0.5C4.08,91.15,4,90.58,4,90V68c0-3.31,2.69-6,6-6s6,2.69,6,6v7.52   l17.76-17.76c2.34-2.35,6.14-2.35,8.48,0C44.59,60.1,44.59,63.9,42.24,66.24z"></path></g><g><path d="M42.24,42.24C41.07,43.41,39.54,44,38,44s-3.07-0.59-4.24-1.76L16,24.48V32c0,3.31-2.69,6-6,6s-6-2.69-6-6V10   c0-0.58,0.08-1.15,0.25-1.71c0.05-0.17,0.1-0.34,0.17-0.5c0.29-0.74,0.74-1.43,1.34-2.03c0.6-0.6,1.29-1.05,2.03-1.34   c0.16-0.07,0.33-0.12,0.5-0.17C8.85,4.08,9.42,4,10,4h22c3.31,0,6,2.69,6,6s-2.69,6-6,6h-7.52l17.76,17.76   C44.59,36.1,44.59,39.9,42.24,42.24z"></path></g><g><path d="M96,10v22c0,3.31-2.69,6-6,6s-6-2.69-6-6v-7.52L66.24,42.24C65.07,43.41,63.54,44,62,44s-3.07-0.59-4.24-1.76   c-2.35-2.34-2.35-6.14,0-8.48L75.52,16H68c-3.31,0-6-2.69-6-6s2.69-6,6-6h22c0.58,0,1.15,0.08,1.71,0.25   c0.17,0.05,0.34,0.1,0.5,0.17c0.74,0.29,1.43,0.74,2.03,1.34c0.6,0.6,1.05,1.29,1.34,2.03c0.07,0.16,0.12,0.33,0.17,0.5   C95.92,8.85,96,9.42,96,10z"></path></g><g><g><path d="M90,62c-3.31,0-6,2.69-6,6v7.52L66.24,57.76c-2.34-2.35-6.14-2.35-8.48,0c-2.35,2.34-2.35,6.14,0,8.48L75.52,84H68    c-3.31,0-6,2.69-6,6s2.69,6,6,6h22c0.58,0,1.15-0.08,1.71-0.25c0.17-0.05,0.34-0.11,0.5-0.17c0.02-0.01,0.04-0.02,0.06-0.02    c0.18-0.08,0.35-0.16,0.52-0.25c0.14-0.07,0.28-0.16,0.42-0.25c0.37-0.23,0.71-0.5,1.03-0.82c0.6-0.6,1.05-1.29,1.34-2.03    c0.07-0.16,0.12-0.33,0.17-0.5C95.92,91.15,96,90.58,96,90V68C96,64.69,93.31,62,90,62z"></path></g></g></svg>