<svg xmlns="http://www.w3.org/2000/svg" xmlns:xlink="http://www.w3.org/1999/xlink" version="1.1" x="0px" y="0px" viewBox="0 0 100 100" enable-background="new 0 0 100 100" xml:space="preserve"><g><path d="M94.24,94.24C93.07,95.41,91.54,96,90,96s-3.07-0.59-4.24-1.76L68,76.48V84c0,3.31-2.69,6-6,6s-6-2.69-6-6V62   c0-0.58,0.08-1.15,0.25-1.71c0.05-0.17,0.1-0.34,0.17-0.5c0.29-0.74,0.74-1.43,1.34-2.03c0.6-0.6,1.29-1.05,2.03-1.34   c0.16-0.07,0.33-0.12,0.5-0.17C60.85,56.08,61.42,56,62,56h22c3.31,0,6,2.69,6,6s-2.69,6-6,6h-7.52l17.76,17.76   C96.59,88.1,96.59,91.9,94.24,94.24z"></path></g><g><path d="M44,62v22c0,3.31-2.69,6-6,6s-6-2.69-6-6v-7.52L14.24,94.24C13.07,95.41,11.54,96,10,96s-3.07-0.59-4.24-1.76   c-2.35-2.34-2.35-6.14,0-8.48L23.52,68H16c-3.31,0-6-2.69-6-6s2.69-6,6-6h22c0.58,0,1.15,0.08,1.71,0.25   c0.17,0.05,0.34,0.1,0.5,0.17c0.74,0.29,1.43,0.74,2.03,1.34c0.6,0.6,1.05,1.29,1.34,2.03c0.07,0.16,0.12,0.33,0.17,0.5   C43.92,60.85,44,61.42,44,62z"></path></g><g><path d="M44,16v22c0,0.58-0.08,1.15-0.25,1.71c-0.05,0.17-0.1,0.34-0.17,0.5c-0.29,0.74-0.74,1.43-1.34,2.03   c-0.32,0.32-0.66,0.59-1.03,0.82c-0.14,0.09-0.28,0.18-0.42,0.25c-0.17,0.09-0.34,0.17-0.52,0.25c-0.02,0-0.04,0.01-0.06,0.02   c-0.16,0.06-0.33,0.12-0.5,0.17C39.15,43.92,38.58,44,38,44H16c-3.31,0-6-2.69-6-6s2.69-6,6-6h7.52L5.76,14.24   c-2.35-2.34-2.35-6.14,0-8.48c2.34-2.35,6.14-2.35,8.48,0L32,23.52V16c0-3.31,2.69-6,6-6S44,12.69,44,16z"></path></g><g><path d="M94.24,14.24L76.48,32H84c3.31,0,6,2.69,6,6s-2.69,6-6,6H62c-0.58,0-1.15-0.08-1.71-0.25c-0.17-0.05-0.34-0.11-0.5-0.17   c-0.02-0.01-0.04-0.02-0.06-0.02c-0.18-0.08-0.35-0.16-0.52-0.25c-0.14-0.07-0.28-0.16-0.42-0.25c-0.37-0.23-0.71-0.5-1.03-0.82   c-0.6-0.6-1.05-1.29-1.34-2.03c-0.07-0.16-0.12-0.33-0.17-0.5C56.08,39.15,56,38.58,56,38V16c0-3.31,2.69-6,6-6s6,2.69,6,6v7.52   L85.76,5.76c2.34-2.35,6.14-2.35,8.48,0C96.59,8.1,96.59,11.9,94.24,14.24z"></path></g></svg>